<svg width="18" height="17" viewBox="0 0 18 17" fill="none" xmlns="http://www.w3.org/2000/svg">
<path d="M3.37427 0.550781H15.2834C16.2209 0.550781 16.8831 0.764648 17.2698 1.19238C17.6624 1.62012 17.8586 2.28516 17.8586 3.1875V7.125C17.8586 8.02148 17.6624 8.68652 17.2698 9.12012C16.8831 9.54785 16.2209 9.76172 15.2834 9.76172H3.37427C2.43677 9.76172 1.77173 9.54785 1.37915 9.12012C0.992432 8.68652 0.799072 8.02148 0.799072 7.125V3.1875C0.799072 2.28516 0.992432 1.62012 1.37915 1.19238C1.77173 0.764648 2.43677 0.550781 3.37427 0.550781ZM2.55688 7.16895C2.55688 7.52051 2.62427 7.77832 2.75903 7.94238C2.89966 8.10059 3.14282 8.17969 3.48853 8.17969H15.1692C15.5149 8.17969 15.7551 8.10059 15.8899 7.94238C16.0305 7.77832 16.1008 7.52051 16.1008 7.16895V3.14355C16.1008 2.79785 16.0305 2.54297 15.8899 2.37891C15.7551 2.21484 15.5149 2.13281 15.1692 2.13281H3.48853C3.14282 2.13281 2.89966 2.21484 2.75903 2.37891C2.62427 2.54297 2.55688 2.79785 2.55688 3.14355V7.16895ZM17.4983 12.4688C17.4983 12.6914 17.4163 12.8789 17.2522 13.0312C17.0881 13.1777 16.8889 13.251 16.6545 13.251H4.94751C4.70728 13.251 4.50806 13.1777 4.34985 13.0312C4.19165 12.8789 4.11255 12.6914 4.11255 12.4688C4.11255 12.2461 4.19165 12.0615 4.34985 11.915C4.50806 11.7686 4.70728 11.6953 4.94751 11.6953H16.6545C16.8889 11.6953 17.0881 11.7686 17.2522 11.915C17.4163 12.0615 17.4983 12.2461 17.4983 12.4688ZM17.4983 15.9404C17.4983 16.1631 17.4163 16.3477 17.2522 16.4941C17.0881 16.6465 16.8889 16.7227 16.6545 16.7227H4.94751C4.70728 16.7227 4.50806 16.6465 4.34985 16.4941C4.19165 16.3477 4.11255 16.1631 4.11255 15.9404C4.11255 15.7178 4.19165 15.5303 4.34985 15.3779C4.50806 15.2314 4.70728 15.1582 4.94751 15.1582H16.6545C16.8889 15.1582 17.0881 15.2314 17.2522 15.3779C17.4163 15.5303 17.4983 15.7178 17.4983 15.9404ZM3.06665 12.4688C3.06665 12.7559 2.96411 13.002 2.75903 13.207C2.55396 13.4121 2.30493 13.5146 2.01196 13.5146C1.72485 13.5146 1.47876 13.4121 1.27368 13.207C1.0686 13.002 0.966064 12.7559 0.966064 12.4688C0.966064 12.1816 1.0686 11.9355 1.27368 11.7305C1.47876 11.5195 1.72485 11.4141 2.01196 11.4141C2.31079 11.4141 2.55981 11.5166 2.75903 11.7217C2.96411 11.9268 3.06665 12.1758 3.06665 12.4688ZM3.06665 15.9404C3.06665 16.2275 2.96411 16.4736 2.75903 16.6787C2.55396 16.8896 2.30493 16.9951 2.01196 16.9951C1.72485 16.9951 1.47876 16.8896 1.27368 16.6787C1.0686 16.4736 0.966064 16.2275 0.966064 15.9404C0.966064 15.6475 1.0686 15.3955 1.27368 15.1846C1.47876 14.9795 1.72485 14.877 2.01196 14.877C2.31079 14.877 2.55981 14.9795 2.75903 15.1846C2.96411 15.3896 3.06665 15.6416 3.06665 15.9404Z" fill="#AC2222"/>
</svg>
