<svg width="24" height="15" viewBox="0 0 24 15" fill="none" xmlns="http://www.w3.org/2000/svg">
<path d="M0.0737305 14.2285V1.08008C0.0737305 0.851562 0.144043 0.669922 0.284668 0.535156C0.425293 0.394531 0.609863 0.324219 0.838379 0.324219H22.5122C22.7349 0.324219 22.9136 0.394531 23.0483 0.535156C23.189 0.669922 23.2593 0.851562 23.2593 1.08008V14.2285C23.2593 14.457 23.189 14.6416 23.0483 14.7822C22.9136 14.9229 22.7349 14.9932 22.5122 14.9932H0.838379C0.609863 14.9932 0.425293 14.9229 0.284668 14.7822C0.144043 14.6416 0.0737305 14.457 0.0737305 14.2285ZM1.83154 12.9893C1.83154 13.1533 1.9165 13.2354 2.08643 13.2354H21.2554C21.4194 13.2354 21.5015 13.1533 21.5015 12.9893V2.33691C21.5015 2.16699 21.4194 2.08203 21.2554 2.08203H2.08643C1.9165 2.08203 1.83154 2.16699 1.83154 2.33691V12.9893ZM2.68408 11.9082V3.40039C2.68408 3.08984 2.83643 2.93457 3.14111 2.93457H20.2007C20.5054 2.93457 20.6577 3.08984 20.6577 3.40039V11.9082C20.6577 12.2246 20.5054 12.3828 20.2007 12.3828H3.14111C2.83643 12.3828 2.68408 12.2246 2.68408 11.9082ZM3.62451 11.2578C3.62451 11.3809 3.68311 11.4424 3.80029 11.4424H19.5327C19.6558 11.4424 19.7173 11.3809 19.7173 11.2578V4.05078C19.7173 3.92773 19.6558 3.86621 19.5327 3.86621H3.80029C3.68311 3.86621 3.62451 3.92773 3.62451 4.05078V11.2578ZM11.6313 12.3828C11.0278 12.3828 10.4829 12.1865 9.99658 11.7939C9.51025 11.4014 9.12354 10.8535 8.83643 10.1504C8.54932 9.44141 8.40576 8.60645 8.40576 7.64551C8.40576 6.69629 8.54932 5.87012 8.83643 5.16699C9.12354 4.45801 9.51025 3.91016 9.99658 3.52344C10.4829 3.13086 11.0278 2.93457 11.6313 2.93457C12.2524 2.93457 12.812 3.13086 13.3101 3.52344C13.8081 3.91016 14.2036 4.45801 14.4966 5.16699C14.7896 5.87012 14.936 6.69629 14.936 7.64551C14.936 8.60645 14.7896 9.44141 14.4966 10.1504C14.2036 10.8535 13.8081 11.4014 13.3101 11.7939C12.812 12.1865 12.2524 12.3828 11.6313 12.3828ZM11.6313 11.2666C12.0415 11.2666 12.4136 11.1201 12.7476 10.8271C13.0874 10.5342 13.3599 10.1182 13.5649 9.5791C13.77 9.03418 13.8726 8.38965 13.8726 7.64551C13.8726 6.91309 13.77 6.27734 13.5649 5.73828C13.3599 5.19922 13.0874 4.7832 12.7476 4.49023C12.4136 4.19141 12.0415 4.04199 11.6313 4.04199C11.2446 4.04199 10.8872 4.19141 10.5591 4.49023C10.231 4.7832 9.96729 5.19922 9.76807 5.73828C9.57471 6.27734 9.47803 6.91309 9.47803 7.64551C9.47803 8.38965 9.57471 9.03418 9.76807 9.5791C9.96729 10.1182 10.231 10.5342 10.5591 10.8271C10.8872 11.1201 11.2446 11.2666 11.6313 11.2666Z" fill="#AC2222"/>
</svg>
