<svg width="21" height="20" viewBox="0 0 21 20" fill="none" xmlns="http://www.w3.org/2000/svg">
<path d="M9.60352 19.208C9.24023 19.208 8.92383 19.1025 8.6543 18.8916C8.39062 18.6865 8.21777 18.4082 8.13574 18.0566L7.7666 16.5098L7.53809 16.4307L6.20215 17.2568C5.8916 17.4502 5.56641 17.5234 5.22656 17.4766C4.88672 17.4355 4.58789 17.2832 4.33008 17.0195L3.1084 15.7979C2.83887 15.5342 2.68359 15.2324 2.64258 14.8926C2.60156 14.5527 2.67773 14.2334 2.87109 13.9346L3.70605 12.5986L3.62695 12.3789L2.08887 12.0186C1.74316 11.9365 1.46484 11.7607 1.25391 11.4912C1.04297 11.2217 0.9375 10.9053 0.9375 10.542V8.81055C0.9375 8.44727 1.04004 8.13086 1.24512 7.86133C1.45605 7.5918 1.7373 7.41602 2.08887 7.33398L3.61816 6.96484L3.69727 6.73633L2.87109 5.40039C2.67188 5.0957 2.59277 4.77637 2.63379 4.44238C2.68066 4.1084 2.83594 3.80664 3.09961 3.53711L4.33008 2.29785C4.58789 2.0459 4.88379 1.89941 5.21777 1.8584C5.55762 1.81152 5.87988 1.88184 6.18457 2.06934L7.5293 2.89551L7.7666 2.79883L8.13574 1.25195C8.21777 0.90625 8.39062 0.62793 8.6543 0.416992C8.92383 0.206055 9.24023 0.100586 9.60352 0.100586H11.3877C11.7568 0.100586 12.0732 0.206055 12.3369 0.416992C12.6064 0.62793 12.7822 0.90625 12.8643 1.25195L13.2246 2.79883L13.4619 2.89551L14.8066 2.06934C15.1113 1.87598 15.4336 1.80273 15.7734 1.84961C16.1133 1.89648 16.4092 2.0459 16.6611 2.29785L17.9004 3.53711C18.1582 3.80664 18.3076 4.1084 18.3486 4.44238C18.3955 4.77637 18.3223 5.0957 18.1289 5.40039L17.2852 6.73633L17.3818 6.96484L18.9111 7.33398C19.2568 7.41602 19.5352 7.5918 19.7461 7.86133C19.957 8.13086 20.0625 8.44727 20.0625 8.81055V10.542C20.0625 10.9053 19.957 11.2217 19.7461 11.4912C19.5352 11.7549 19.2568 11.9307 18.9111 12.0186L17.3643 12.3789L17.2852 12.5986L18.1201 13.9346C18.3135 14.2334 18.3867 14.5527 18.3398 14.8926C18.2988 15.2324 18.1494 15.5342 17.8916 15.7979L16.6523 17.0195C16.4004 17.2832 16.1045 17.4355 15.7646 17.4766C15.4248 17.5234 15.1025 17.4502 14.7979 17.2568L13.4443 16.4307L13.2246 16.5098L12.8643 18.0566C12.7822 18.4082 12.6064 18.6865 12.3369 18.8916C12.0732 19.1025 11.7568 19.208 11.3877 19.208H9.60352ZM9.83203 17.5908H11.1592C11.3057 17.5908 11.3877 17.5234 11.4053 17.3887L11.9326 15.2266C12.2256 15.1621 12.498 15.0771 12.75 14.9717C13.002 14.8604 13.2363 14.7373 13.4531 14.6025L15.3516 15.7627C15.4629 15.8389 15.5713 15.8242 15.6768 15.7188L16.5908 14.7959C16.6904 14.7139 16.7021 14.6084 16.626 14.4795L15.457 12.5986C15.5859 12.3877 15.7031 12.1533 15.8086 11.8955C15.9199 11.6318 16.0078 11.3623 16.0723 11.0869L18.2432 10.5684C18.3779 10.5449 18.4453 10.4629 18.4453 10.3223V9.02148C18.4453 8.88672 18.3779 8.80469 18.2432 8.77539L16.0811 8.24805C16.0107 7.96094 15.917 7.68555 15.7998 7.42188C15.6885 7.1582 15.5801 6.92969 15.4746 6.73633L16.6348 4.84668C16.7109 4.72363 16.7021 4.6123 16.6084 4.5127L15.6855 3.60742C15.5801 3.51367 15.4688 3.49902 15.3516 3.56348L13.4619 4.71484C13.2451 4.5918 13.0078 4.47461 12.75 4.36328C12.4922 4.25195 12.2197 4.16406 11.9326 4.09961L11.4053 1.91992C11.3877 1.78516 11.3057 1.71777 11.1592 1.71777H9.83203C9.69141 1.71777 9.60938 1.78516 9.58594 1.91992L9.06738 4.08203C8.78613 4.15234 8.50781 4.24609 8.23242 4.36328C7.95703 4.47461 7.71973 4.58887 7.52051 4.70605L5.63965 3.56348C5.52246 3.49902 5.41406 3.51367 5.31445 3.60742L4.38281 4.5127C4.28906 4.60645 4.28027 4.71777 4.35645 4.84668L5.5166 6.73633C5.41113 6.92969 5.2998 7.1582 5.18262 7.42188C5.06543 7.68555 4.97461 7.96387 4.91016 8.25684L2.75684 8.77539C2.62207 8.80469 2.55469 8.88672 2.55469 9.02148V10.3223C2.55469 10.4629 2.62207 10.5449 2.75684 10.5684L4.91895 11.0781C4.9834 11.3594 5.07129 11.6289 5.18262 11.8867C5.29395 12.1445 5.41113 12.3818 5.53418 12.5986L4.35645 14.4795C4.28613 14.6084 4.29785 14.7168 4.3916 14.8047L5.31445 15.7275C5.42578 15.8271 5.53418 15.8389 5.63965 15.7627L7.53809 14.6025C7.75488 14.7373 7.99219 14.8604 8.25 14.9717C8.51367 15.0771 8.78613 15.1621 9.06738 15.2266L9.58594 17.3887C9.60938 17.5234 9.69141 17.5908 9.83203 17.5908ZM10.5 12.9941C9.88477 12.9941 9.3252 12.8447 8.82129 12.5459C8.31738 12.2412 7.91309 11.8369 7.6084 11.333C7.30957 10.8291 7.16016 10.2695 7.16016 9.6543C7.16016 9.04492 7.30957 8.48828 7.6084 7.98438C7.91309 7.48047 8.31738 7.0791 8.82129 6.78027C9.3252 6.48145 9.88477 6.33203 10.5 6.33203C11.1094 6.33203 11.666 6.48145 12.1699 6.78027C12.6738 7.0791 13.0752 7.48047 13.374 7.98438C13.6787 8.48828 13.8311 9.04492 13.8311 9.6543C13.8311 10.2637 13.6787 10.8232 13.374 11.333C13.0752 11.8369 12.6738 12.2412 12.1699 12.5459C11.666 12.8447 11.1094 12.9941 10.5 12.9941ZM10.5 11.4736C10.8223 11.4736 11.1182 11.3916 11.3877 11.2275C11.6631 11.0576 11.8799 10.835 12.0381 10.5596C12.2021 10.2842 12.2842 9.98242 12.2842 9.6543C12.2842 9.32617 12.2021 9.02734 12.0381 8.75781C11.8799 8.48242 11.6631 8.2627 11.3877 8.09863C11.1182 7.93457 10.8223 7.85254 10.5 7.85254C10.166 7.85254 9.86133 7.93457 9.58594 8.09863C9.31641 8.2627 9.09961 8.48242 8.93555 8.75781C8.77148 9.02734 8.68945 9.32617 8.68945 9.6543C8.68945 9.98828 8.77148 10.293 8.93555 10.5684C9.09961 10.8438 9.31641 11.0635 9.58594 11.2275C9.86133 11.3916 10.166 11.4736 10.5 11.4736Z" fill="#AC2222"/>
</svg>
